<?xml version="1.0" encoding="utf-8"?>
<!-- Generator: Adobe Illustrator 24.2.1, SVG Export Plug-In . SVG Version: 6.00 Build 0)  -->
<svg version="1.1" id="Livello_1" xmlns="http://www.w3.org/2000/svg" xmlns:xlink="http://www.w3.org/1999/xlink" x="0px" y="0px"
	 viewBox="0 0 50 45" style="enable-background:new 0 0 50 45;" xml:space="preserve">
<style type="text/css">
	.st0{fill:#010101;}
</style>
<path class="st0" d="M43.8,28.1H18.4l0.6,2.8h23.3c1.3,0,2.3,1.2,2,2.5l-0.5,2.1c1.6,0.8,2.7,2.5,2.7,4.4c0,2.7-2.2,4.9-4.9,4.9
	c-2.6,0-4.7-2.1-4.8-4.7c0-1.4,0.5-2.7,1.5-3.6H20.1c0.9,0.9,1.5,2.1,1.5,3.5c0,2.8-2.3,5-5.1,4.9c-2.5-0.1-4.5-2.1-4.6-4.6
	c-0.1-1.9,0.9-3.6,2.4-4.5L8.1,5.8H2.1C0.9,5.8,0,4.9,0,3.7V2.4c0-1.2,0.9-2.1,2.1-2.1H11c1,0,1.8,0.7,2,1.7l0.8,3.9h34.1
	c1.3,0,2.3,1.2,2,2.5l-4.1,18.1C45.6,27.4,44.8,28.1,43.8,28.1z M35.4,14.9h-4.2v-3.5c0-0.8-0.6-1.4-1.4-1.4h-1.4
	c-0.8,0-1.4,0.6-1.4,1.4v3.5h-4.2c-0.8,0-1.4,0.6-1.4,1.4v1.4c0,0.8,0.6,1.4,1.4,1.4h4.2v3.5c0,0.8,0.6,1.4,1.4,1.4h1.4
	c0.8,0,1.4-0.6,1.4-1.4V19h4.2c0.8,0,1.4-0.6,1.4-1.4v-1.4C36.8,15.5,36.2,14.9,35.4,14.9z"/>
</svg>
