<?xml version="1.0" encoding="utf-8"?>
<!-- Generator: Adobe Illustrator 24.2.1, SVG Export Plug-In . SVG Version: 6.00 Build 0)  -->
<svg version="1.1" id="Livello_1" xmlns="http://www.w3.org/2000/svg" xmlns:xlink="http://www.w3.org/1999/xlink" x="0px" y="0px"
	 viewBox="0 0 50 50" style="enable-background:new 0 0 50 50;" xml:space="preserve">
<style type="text/css">
	.st0{fill:#010101;}
</style>
<path class="st0" d="M29.7,18.7v3.1c0,0.6-0.5,1.2-1.2,1.2H23v5.5c0,0.6-0.5,1.2-1.2,1.2h-3.1c-0.6,0-1.2-0.5-1.2-1.2V23h-5.5
	c-0.6,0-1.2-0.5-1.2-1.2v-3.1c0-0.6,0.5-1.2,1.2-1.2h5.5v-5.5c0-0.6,0.5-1.2,1.2-1.2h3.1c0.6,0,1.2,0.5,1.2,1.2v5.5h5.5
	C29.2,17.6,29.7,18.1,29.7,18.7z M49.3,46.6l-2.8,2.8c-0.9,0.9-2.4,0.9-3.3,0l-9.7-9.7c-0.4-0.4-0.7-1-0.7-1.7v-1.6
	c-3.4,2.7-7.8,4.3-12.5,4.3C9.1,40.6,0,31.5,0,20.3S9.1,0,20.3,0s20.3,9.1,20.3,20.3c0,4.7-1.6,9.1-4.3,12.5h1.6
	c0.6,0,1.2,0.2,1.7,0.7l9.7,9.7C50.2,44.1,50.2,45.6,49.3,46.6z M33.6,20.3C33.6,13,27.7,7,20.3,7S7,13,7,20.3S13,33.6,20.3,33.6
	S33.6,27.7,33.6,20.3z"/>
</svg>
