<?xml version="1.0" encoding="utf-8"?>
<!-- Generator: Adobe Illustrator 24.2.1, SVG Export Plug-In . SVG Version: 6.00 Build 0)  -->
<svg version="1.1" id="Livello_1" xmlns="http://www.w3.org/2000/svg" xmlns:xlink="http://www.w3.org/1999/xlink" x="0px" y="0px"
	 viewBox="0 0 50 52" style="enable-background:new 0 0 50 52;" xml:space="preserve">
<style type="text/css">
	.st0{fill:#A21F34;}
</style>
<g>
	<path id="XMLID_1_" class="st0" d="M30.9,45.5V47c0,1.2-0.9,2.2-2,2.4l-0.4,1.4c-0.2,0.8-0.9,1.3-1.7,1.3h-3.7
		c-0.8,0-1.5-0.5-1.7-1.3l-0.4-1.4c-1.2-0.2-2.1-1.2-2.1-2.4v-1.5c0-0.8,0.7-1.5,1.5-1.5h9C30.3,44,30.9,44.7,30.9,45.5z M37.8,25
		c0,3.5-1.4,6.6-3.6,8.9c-1.7,1.8-2.8,4-3.2,6.4C30.9,41.3,30,42,29,42h-8c-1,0-1.9-0.8-2.1-1.8c-0.4-2.4-1.5-4.7-3.2-6.4
		c-2.2-2.3-3.5-5.4-3.6-8.8c-0.1-7.1,5.6-12.9,12.7-13C32,12.1,37.8,17.8,37.8,25z M26.4,17.2c0-0.8-0.6-1.4-1.4-1.4
		c-5.1,0-9.3,4.1-9.3,9.3c0,0.8,0.6,1.4,1.4,1.4c0.8,0,1.4-0.6,1.4-1.4c0-3.5,2.9-6.4,6.4-6.4C25.8,18.6,26.4,18,26.4,17.2z M25,7.9
		c0.8,0,1.4-0.6,1.4-1.4V1.4c0-0.8-0.6-1.4-1.4-1.4s-1.4,0.6-1.4,1.4v5.1C23.6,7.3,24.2,7.9,25,7.9z M8,24.9c0-0.8-0.6-1.4-1.4-1.4
		H1.4c-0.8,0-1.4,0.6-1.4,1.4c0,0.8,0.6,1.4,1.4,1.4h5.1C7.3,26.4,8,25.8,8,24.9z M48.6,23.5h-5.1c-0.8,0-1.4,0.6-1.4,1.4
		c0,0.8,0.6,1.4,1.4,1.4h5.1c0.8,0,1.4-0.6,1.4-1.4C50,24.2,49.4,23.5,48.6,23.5z M10.9,37l-3.6,3.6c-0.6,0.6-0.6,1.5,0,2
		c0.3,0.3,0.7,0.4,1,0.4c0.4,0,0.7-0.1,1-0.4L13,39c0.6-0.6,0.6-1.5,0-2C12.4,36.4,11.5,36.4,10.9,37z M38.1,13.3
		c0.4,0,0.7-0.1,1-0.4l3.6-3.6c0.6-0.6,0.6-1.5,0-2c-0.6-0.6-1.5-0.6-2,0L37,10.9c-0.6,0.6-0.6,1.5,0,2
		C37.3,13.2,37.7,13.3,38.1,13.3z M10.9,12.9c0.3,0.3,0.7,0.4,1,0.4s0.7-0.1,1-0.4c0.6-0.6,0.6-1.5,0-2L9.4,7.3
		c-0.6-0.6-1.5-0.6-2,0c-0.6,0.6-0.6,1.5,0,2L10.9,12.9z M39.1,37c-0.6-0.6-1.5-0.6-2,0c-0.6,0.6-0.6,1.5,0,2l3.6,3.6
		c0.3,0.3,0.7,0.4,1,0.4c0.4,0,0.7-0.1,1-0.4c0.6-0.6,0.6-1.5,0-2L39.1,37z"/>
</g>
</svg>
