<?xml version="1.0" encoding="utf-8"?>
<!-- Generator: Adobe Illustrator 24.2.1, SVG Export Plug-In . SVG Version: 6.00 Build 0)  -->
<svg version="1.1" id="Livello_1" xmlns="http://www.w3.org/2000/svg" xmlns:xlink="http://www.w3.org/1999/xlink" x="0px" y="0px"
	 viewBox="0 0 50 50" style="enable-background:new 0 0 50 50;" xml:space="preserve">
<style type="text/css">
	.st0{fill:#A21F34;}
</style>
<path class="st0" d="M0,24.6V4.7C0,2.1,2.1,0,4.7,0h19.9c1.2,0,2.4,0.5,3.3,1.4l20.7,20.7c1.8,1.8,1.8,4.8,0,6.6L28.7,48.6
	c-1.8,1.8-4.8,1.8-6.6,0L1.4,27.9C0.5,27.1,0,25.9,0,24.6z M10.9,6.3c-2.6,0-4.7,2.1-4.7,4.7s2.1,4.7,4.7,4.7s4.7-2.1,4.7-4.7
	S13.5,6.3,10.9,6.3z"/>
</svg>
