<?xml version="1.0" encoding="utf-8"?>
<!-- Generator: Adobe Illustrator 24.2.1, SVG Export Plug-In . SVG Version: 6.00 Build 0)  -->
<svg version="1.1" id="Livello_1" xmlns="http://www.w3.org/2000/svg" xmlns:xlink="http://www.w3.org/1999/xlink" x="0px" y="0px"
	 viewBox="0 0 50 42" style="enable-background:new 0 0 50 42;" xml:space="preserve">
<style type="text/css">
	.st0{fill:#010101;}
	.st1{fill:#FFFFFF;}
</style>
<g>
	<path class="st0" d="M47.9,9.8l-5.2-8.2c-0.5-0.7-1.3-1.2-2.2-1.2H8.4c-0.9,0-1.7,0.5-2.2,1.2L1.1,9.8C-1.6,14,0.8,19.9,5.8,20.6
		c0.4,0,0.7,0.1,1.1,0.1c2.4,0,4.4-1,5.9-2.6c1.4,1.6,3.5,2.6,5.9,2.6c2.4,0,4.4-1,5.9-2.6c1.4,1.6,3.5,2.6,5.9,2.6
		c2.4,0,4.4-1,5.9-2.6c1.4,1.6,3.5,2.6,5.9,2.6c0.4,0,0.7,0,1.1-0.1C48.2,19.9,50.6,14,47.9,9.8z M42.1,23.2c-0.8,0-1.6-0.1-2.3-0.3
		v7.9H9.2v-7.9c-0.8,0.2-1.6,0.3-2.3,0.3c-0.5,0-1,0-1.4-0.1C5,23.1,4.6,23,4.1,22.9v15.7c0,1.4,1.1,2.5,2.5,2.5h35.6
		c1.4,0,2.5-1.1,2.5-2.5V22.9c-0.4,0.1-0.9,0.2-1.3,0.3C43.1,23.2,42.6,23.2,42.1,23.2L42.1,23.2z"/>
	<g>
		<g>
			<path class="st1" d="M36,39.1c-8.3-12-9.8-13.2-9.8-17.7c0-6,4.9-11,11-11s11,4.9,11,11c0,4.4-1.5,5.6-9.8,17.7
				C37.7,39.9,36.5,39.9,36,39.1L36,39.1z"/>
		</g>
		<g>
			<path d="M37.1,41.7c-1.1,0-2.1-0.5-2.7-1.4l0,0c-1.5-2.1-2.7-3.9-3.8-5.5c-5.1-7.3-6.4-9.1-6.4-13.3c0-7.1,5.8-12.9,12.9-12.9
				S50,14.3,50,21.5c0,4.2-1.2,6-6.4,13.3c-1.1,1.5-2.3,3.3-3.8,5.5C39.2,41.1,38.2,41.7,37.1,41.7z M37.6,38L37.6,38L37.6,38
				L37.6,38z M37.1,12.5c-5,0-9,4-9,9c0,2.9,0.6,3.9,5.6,11.1c1,1.4,2.1,2.9,3.3,4.8c1.3-1.8,2.4-3.4,3.3-4.8
				c5-7.1,5.6-8.2,5.6-11.1C46.1,16.5,42,12.5,37.1,12.5z"/>
		</g>
	</g>
</g>
</svg>
